<?xml version="1.0" encoding="UTF-8"?>
<svg width="25px" height="25px" viewBox="0 0 25 25" version="1.1" xmlns="http://www.w3.org/2000/svg" xmlns:xlink="http://www.w3.org/1999/xlink">
    <!-- Generator: sketchtool 46 (44423) - http://www.bohemiancoding.com/sketch -->
    <title>1201DA72-51CD-4379-8613-EFF588470DFD</title>
    <desc>Created with sketchtool.</desc>
    <defs></defs>
    <g id="-" stroke="none" stroke-width="1" fill="none" fill-rule="evenodd">
        <g id="Searchbar/Desk" transform="translate(-1048.000000, -28.000000)" fill="#F16A20">
            <path d="M1072.78906,51.2109375 C1072.92969,51.3515632 1073,51.5273427 1073,51.7382812 C1073,51.9492198 1072.92969,52.1249993 1072.78906,52.265625 C1072.63281,52.4218758 1072.45313,52.5 1072.25,52.5 C1072.04687,52.5 1071.86719,52.4218758 1071.71094,52.265625 L1064.44531,44.953125 C1063.61718,45.6718786 1062.67969,46.234373 1061.63281,46.640625 C1060.58593,47.046877 1059.47657,47.25 1058.30469,47.25 C1057.00781,47.25 1055.78907,47.0039087 1054.64844,46.5117188 C1053.50781,46.0195288 1052.51172,45.3515667 1051.66016,44.5078125 C1050.80859,43.6640583 1050.14063,42.6718807 1049.65625,41.53125 C1049.17187,40.3906193 1048.92969,39.1718815 1048.92969,37.875 C1048.92969,36.5781185 1049.17187,35.3593807 1049.65625,34.21875 C1050.14063,33.0781193 1050.80859,32.0859417 1051.66016,31.2421875 C1052.51172,30.3984333 1053.50781,29.7304712 1054.64844,29.2382812 C1055.78907,28.7460913 1057.00781,28.5 1058.30469,28.5 C1059.58594,28.5 1060.79687,28.7460913 1061.9375,29.2382812 C1063.07813,29.7304712 1064.07421,30.3984333 1064.92578,31.2421875 C1065.77735,32.0859417 1066.44922,33.0781193 1066.94141,34.21875 C1067.4336,35.3593807 1067.67969,36.5781185 1067.67969,37.875 C1067.67969,39.0156307 1067.48438,40.0976511 1067.09375,41.1210938 C1066.70312,42.1445364 1066.17188,43.0624959 1065.5,43.875 L1072.78906,51.2109375 Z M1058.30469,45.7734375 C1059.38282,45.7734375 1060.40234,45.5664083 1061.36328,45.1523438 C1062.32422,44.7382792 1063.16015,44.1718786 1063.87109,43.453125 C1064.58203,42.7343714 1065.14453,41.8984423 1065.55859,40.9453125 C1065.97266,39.9921827 1066.17969,38.9687555 1066.17969,37.875 C1066.17969,36.7812445 1065.97266,35.7578173 1065.55859,34.8046875 C1065.14453,33.8515577 1064.58203,33.0156286 1063.87109,32.296875 C1063.16015,31.5781214 1062.32422,31.0117208 1061.36328,30.5976562 C1060.40234,30.1835917 1059.38282,29.9765625 1058.30469,29.9765625 C1057.21093,29.9765625 1056.1836,30.1835917 1055.22266,30.5976562 C1054.26171,31.0117208 1053.42578,31.5781214 1052.71484,32.296875 C1052.0039,33.0156286 1051.44141,33.8515577 1051.02734,34.8046875 C1050.61328,35.7578173 1050.40625,36.7812445 1050.40625,37.875 C1050.40625,38.9687555 1050.61328,39.9921827 1051.02734,40.9453125 C1051.44141,41.8984423 1052.0039,42.7343714 1052.71484,43.453125 C1053.42578,44.1718786 1054.26171,44.7382792 1055.22266,45.1523438 C1056.1836,45.5664083 1057.21093,45.7734375 1058.30469,45.7734375 Z" id="magnifier---simple-line-icons"></path>
        </g>
    </g>
</svg>